<svg version="1.1" viewBox="0.0 0.0 600.0 371.0" fill="none" stroke="none" stroke-linecap="square" stroke-miterlimit="10" width="600" height="371" xmlns:xlink="http://www.w3.org/1999/xlink" xmlns="http://www.w3.org/2000/svg"><path fill="#ffffff" d="M0 0L600.0 0L600.0 371.0L0 371.0L0 0Z" fill-rule="nonzero"/><path stroke="#cccccc" stroke-width="1.0" stroke-linecap="butt" d="M162.5 88.5L162.5 332.5" fill-rule="nonzero"/><path stroke="#cccccc" stroke-width="1.0" stroke-linecap="butt" d="M325.5 88.5L325.5 332.5" fill-rule="nonzero"/><path stroke="#cccccc" stroke-width="1.0" stroke-linecap="butt" d="M488.5 88.5L488.5 332.5" fill-rule="nonzero"/><path stroke="#333333" stroke-width="1.0" stroke-linecap="butt" d="M45.5 332.5L581.5 332.5" fill-rule="nonzero"/><path stroke="#cccccc" stroke-width="1.0" stroke-linecap="butt" d="M45.5 251.5L581.5 251.5" fill-rule="nonzero"/><path stroke="#cccccc" stroke-width="1.0" stroke-linecap="butt" d="M45.5 169.5L581.5 169.5" fill-rule="nonzero"/><path stroke="#cccccc" stroke-width="1.0" stroke-linecap="butt" d="M45.5 88.5L581.5 88.5" fill-rule="nonzero"/><clipPath id="id_0"><path d="M45.55 88.28333L581.45 88.28333L581.45 332.45L45.55 332.45L45.55 88.28333Z" clip-rule="nonzero"/></clipPath><path stroke="#4285f4" stroke-width="2.0" stroke-linecap="butt" clip-path="url(#id_0)" d="M45.55 251.06111L68.85 267.3389L92.15 267.3389L208.65 283.61667L231.95 275.47778L255.25 275.47778L371.75 259.2L395.05 275.47778L418.35 275.47778L534.85 291.75555L558.15 185.95L581.45 185.95" fill-rule="nonzero"/><path stroke="#ea4335" stroke-width="2.0" stroke-linecap="butt" clip-path="url(#id_0)" d="M92.15 259.2L208.65 259.2L231.95 259.2L255.25 226.64444L371.75 226.64444L395.05 226.64444L418.35 267.3389L534.85 267.3389L558.15 267.3389L581.45 218.50555" fill-rule="nonzero"/><path stroke="#fbbc04" stroke-width="2.0" stroke-linecap="butt" stroke-dasharray="8.0,6.0" clip-path="url(#id_0)" d="M45.55 96.422226L68.85 96.422226L92.15 96.422226L208.65 96.422226L231.95 96.422226L255.25 96.422226L371.75 96.422226L395.05 96.422226L418.35 96.422226L534.85 96.422226L558.15 96.422226L581.45 96.422226" fill-rule="nonzero"/><path fill="#000000" fill-opacity="0.0" clip-path="url(#id_0)" d="M48.55 251.06111C48.55 252.71797 47.206856 254.06111 45.55 254.06111C43.893147 254.06111 42.55 252.71797 42.55 251.06111C42.55 249.40425 43.893147 248.06111 45.55 248.06111C47.206856 248.06111 48.55 249.40425 48.55 251.06111Z" fill-rule="nonzero"/><path fill="#000000" fill-opacity="0.0" clip-path="url(#id_0)" d="M71.85 267.3389C71.85 268.99576 70.50685 270.3389 68.85 270.3389C67.193146 270.3389 65.85 268.99576 65.85 267.3389C65.85 265.68204 67.193146 264.3389 68.85 264.3389C70.50685 264.3389 71.85 265.68204 71.85 267.3389Z" fill-rule="nonzero"/><path fill="#000000" fill-opacity="0.0" clip-path="url(#id_0)" d="M95.15 267.3389C95.15 268.99576 93.806854 270.3389 92.15 270.3389C90.49315 270.3389 89.15 268.99576 89.15 267.3389C89.15 265.68204 90.49315 264.3389 92.15 264.3389C93.806854 264.3389 95.15 265.68204 95.15 267.3389Z" fill-rule="nonzero"/><path fill="#000000" fill-opacity="0.0" clip-path="url(#id_0)" d="M211.65 283.61667C211.65 285.27353 210.30685 286.61667 208.65 286.61667C206.99315 286.61667 205.65 285.27353 205.65 283.61667C205.65 281.9598 206.99315 280.61667 208.65 280.61667C210.30685 280.61667 211.65 281.9598 211.65 283.61667Z" fill-rule="nonzero"/><path fill="#000000" fill-opacity="0.0" clip-path="url(#id_0)" d="M234.95 275.47778C234.95 277.13464 233.60686 278.47778 231.95 278.47778C230.29315 278.47778 228.95 277.13464 228.95 275.47778C228.95 273.82092 230.29315 272.47778 231.95 272.47778C233.60686 272.47778 234.95 273.82092 234.95 275.47778Z" fill-rule="nonzero"/><path fill="#000000" fill-opacity="0.0" clip-path="url(#id_0)" d="M258.25 275.47778C258.25 277.13464 256.90686 278.47778 255.25 278.47778C253.59314 278.47778 252.25 277.13464 252.25 275.47778C252.25 273.82092 253.59314 272.47778 255.25 272.47778C256.90686 272.47778 258.25 273.82092 258.25 275.47778Z" fill-rule="nonzero"/><path fill="#000000" fill-opacity="0.0" clip-path="url(#id_0)" d="M374.75 259.2C374.75 260.85684 373.40686 262.2 371.75 262.2C370.09314 262.2 368.75 260.85684 368.75 259.2C368.75 257.54315 370.09314 256.2 371.75 256.2C373.40686 256.2 374.75 257.54315 374.75 259.2Z" fill-rule="nonzero"/><path fill="#000000" fill-opacity="0.0" clip-path="url(#id_0)" d="M398.05 275.47778C398.05 277.13464 396.70685 278.47778 395.05 278.47778C393.39316 278.47778 392.05 277.13464 392.05 275.47778C392.05 273.82092 393.39316 272.47778 395.05 272.47778C396.70685 272.47778 398.05 273.82092 398.05 275.47778Z" fill-rule="nonzero"/><path fill="#000000" fill-opacity="0.0" clip-path="url(#id_0)" d="M421.35 275.47778C421.35 277.13464 420.00687 278.47778 418.35 278.47778C416.69315 278.47778 415.35 277.13464 415.35 275.47778C415.35 273.82092 416.69315 272.47778 418.35 272.47778C420.00687 272.47778 421.35 273.82092 421.35 275.47778Z" fill-rule="nonzero"/><path fill="#000000" fill-opacity="0.0" clip-path="url(#id_0)" d="M537.85 291.75555C537.85 293.4124 536.50684 294.75555 534.85 294.75555C533.1931 294.75555 531.85 293.4124 531.85 291.75555C531.85 290.0987 533.1931 288.75555 534.85 288.75555C536.50684 288.75555 537.85 290.0987 537.85 291.75555Z" fill-rule="nonzero"/><path fill="#000000" fill-opacity="0.0" clip-path="url(#id_0)" d="M561.15 185.95C561.15 187.60686 559.8069 188.95 558.15 188.95C556.49316 188.95 555.15 187.60686 555.15 185.95C555.15 184.29315 556.49316 182.95 558.15 182.95C559.8069 182.95 561.15 184.29315 561.15 185.95Z" fill-rule="nonzero"/><path fill="#000000" fill-opacity="0.0" clip-path="url(#id_0)" d="M584.45 185.95C584.45 187.60686 583.1069 188.95 581.45 188.95C579.79315 188.95 578.45 187.60686 578.45 185.95C578.45 184.29315 579.79315 182.95 581.45 182.95C583.1069 182.95 584.45 184.29315 584.45 185.95Z" fill-rule="nonzero"/><path fill="#000000" fill-opacity="0.0" clip-path="url(#id_0)" d="M95.15 259.2C95.15 260.85684 93.806854 262.2 92.15 262.2C90.49315 262.2 89.15 260.85684 89.15 259.2C89.15 257.54315 90.49315 256.2 92.15 256.2C93.806854 256.2 95.15 257.54315 95.15 259.2Z" fill-rule="nonzero"/><path fill="#000000" fill-opacity="0.0" clip-path="url(#id_0)" d="M211.65 259.2C211.65 260.85684 210.30685 262.2 208.65 262.2C206.99315 262.2 205.65 260.85684 205.65 259.2C205.65 257.54315 206.99315 256.2 208.65 256.2C210.30685 256.2 211.65 257.54315 211.65 259.2Z" fill-rule="nonzero"/><path fill="#000000" fill-opacity="0.0" clip-path="url(#id_0)" d="M234.95 259.2C234.95 260.85684 233.60686 262.2 231.95 262.2C230.29315 262.2 228.95 260.85684 228.95 259.2C228.95 257.54315 230.29315 256.2 231.95 256.2C233.60686 256.2 234.95 257.54315 234.95 259.2Z" fill-rule="nonzero"/><path fill="#000000" fill-opacity="0.0" clip-path="url(#id_0)" d="M258.25 226.64444C258.25 228.3013 256.90686 229.64444 255.25 229.64444C253.59314 229.64444 252.25 228.3013 252.25 226.64444C252.25 224.9876 253.59314 223.64444 255.25 223.64444C256.90686 223.64444 258.25 224.9876 258.25 226.64444Z" fill-rule="nonzero"/><path fill="#000000" fill-opacity="0.0" clip-path="url(#id_0)" d="M374.75 226.64444C374.75 228.3013 373.40686 229.64444 371.75 229.64444C370.09314 229.64444 368.75 228.3013 368.75 226.64444C368.75 224.9876 370.09314 223.64444 371.75 223.64444C373.40686 223.64444 374.75 224.9876 374.75 226.64444Z" fill-rule="nonzero"/><path fill="#000000" fill-opacity="0.0" clip-path="url(#id_0)" d="M398.05 226.64444C398.05 228.3013 396.70685 229.64444 395.05 229.64444C393.39316 229.64444 392.05 228.3013 392.05 226.64444C392.05 224.9876 393.39316 223.64444 395.05 223.64444C396.70685 223.64444 398.05 224.9876 398.05 226.64444Z" fill-rule="nonzero"/><path fill="#000000" fill-opacity="0.0" clip-path="url(#id_0)" d="M421.35 267.3389C421.35 268.99576 420.00687 270.3389 418.35 270.3389C416.69315 270.3389 415.35 268.99576 415.35 267.3389C415.35 265.68204 416.69315 264.3389 418.35 264.3389C420.00687 264.3389 421.35 265.68204 421.35 267.3389Z" fill-rule="nonzero"/><path fill="#000000" fill-opacity="0.0" clip-path="url(#id_0)" d="M537.85 267.3389C537.85 268.99576 536.50684 270.3389 534.85 270.3389C533.1931 270.3389 531.85 268.99576 531.85 267.3389C531.85 265.68204 533.1931 264.3389 534.85 264.3389C536.50684 264.3389 537.85 265.68204 537.85 267.3389Z" fill-rule="nonzero"/><path fill="#000000" fill-opacity="0.0" clip-path="url(#id_0)" d="M561.15 267.3389C561.15 268.99576 559.8069 270.3389 558.15 270.3389C556.49316 270.3389 555.15 268.99576 555.15 267.3389C555.15 265.68204 556.49316 264.3389 558.15 264.3389C559.8069 264.3389 561.15 265.68204 561.15 267.3389Z" fill-rule="nonzero"/><path fill="#000000" fill-opacity="0.0" clip-path="url(#id_0)" d="M584.45 218.50555C584.45 220.16241 583.1069 221.50555 581.45 221.50555C579.79315 221.50555 578.45 220.16241 578.45 218.50555C578.45 216.8487 579.79315 215.50555 581.45 215.50555C583.1069 215.50555 584.45 216.8487 584.45 218.50555Z" fill-rule="nonzero"/><path fill="#000000" fill-opacity="0.0" clip-path="url(#id_0)" d="M48.55 96.422226C48.55 98.07908 47.206856 99.422226 45.55 99.422226C43.893147 99.422226 42.55 98.07908 42.55 96.422226C42.55 94.765366 43.893147 93.422226 45.55 93.422226C47.206856 93.422226 48.55 94.765366 48.55 96.422226Z" fill-rule="nonzero"/><path fill="#000000" fill-opacity="0.0" clip-path="url(#id_0)" d="M71.85 96.422226C71.85 98.07908 70.50685 99.422226 68.85 99.422226C67.193146 99.422226 65.85 98.07908 65.85 96.422226C65.85 94.765366 67.193146 93.422226 68.85 93.422226C70.50685 93.422226 71.85 94.765366 71.85 96.422226Z" fill-rule="nonzero"/><path fill="#000000" fill-opacity="0.0" clip-path="url(#id_0)" d="M95.15 96.422226C95.15 98.07908 93.806854 99.422226 92.15 99.422226C90.49315 99.422226 89.15 98.07908 89.15 96.422226C89.15 94.765366 90.49315 93.422226 92.15 93.422226C93.806854 93.422226 95.15 94.765366 95.15 96.422226Z" fill-rule="nonzero"/><path fill="#000000" fill-opacity="0.0" clip-path="url(#id_0)" d="M211.65 96.422226C211.65 98.07908 210.30685 99.422226 208.65 99.422226C206.99315 99.422226 205.65 98.07908 205.65 96.422226C205.65 94.765366 206.99315 93.422226 208.65 93.422226C210.30685 93.422226 211.65 94.765366 211.65 96.422226Z" fill-rule="nonzero"/><path fill="#000000" fill-opacity="0.0" clip-path="url(#id_0)" d="M234.95 96.422226C234.95 98.07908 233.60686 99.422226 231.95 99.422226C230.29315 99.422226 228.95 98.07908 228.95 96.422226C228.95 94.765366 230.29315 93.422226 231.95 93.422226C233.60686 93.422226 234.95 94.765366 234.95 96.422226Z" fill-rule="nonzero"/><path fill="#000000" fill-opacity="0.0" clip-path="url(#id_0)" d="M258.25 96.422226C258.25 98.07908 256.90686 99.422226 255.25 99.422226C253.59314 99.422226 252.25 98.07908 252.25 96.422226C252.25 94.765366 253.59314 93.422226 255.25 93.422226C256.90686 93.422226 258.25 94.765366 258.25 96.422226Z" fill-rule="nonzero"/><path fill="#000000" fill-opacity="0.0" clip-path="url(#id_0)" d="M374.75 96.422226C374.75 98.07908 373.40686 99.422226 371.75 99.422226C370.09314 99.422226 368.75 98.07908 368.75 96.422226C368.75 94.765366 370.09314 93.422226 371.75 93.422226C373.40686 93.422226 374.75 94.765366 374.75 96.422226Z" fill-rule="nonzero"/><path fill="#000000" fill-opacity="0.0" clip-path="url(#id_0)" d="M398.05 96.422226C398.05 98.07908 396.70685 99.422226 395.05 99.422226C393.39316 99.422226 392.05 98.07908 392.05 96.422226C392.05 94.765366 393.39316 93.422226 395.05 93.422226C396.70685 93.422226 398.05 94.765366 398.05 96.422226Z" fill-rule="nonzero"/><path fill="#000000" fill-opacity="0.0" clip-path="url(#id_0)" d="M421.35 96.422226C421.35 98.07908 420.00687 99.422226 418.35 99.422226C416.69315 99.422226 415.35 98.07908 415.35 96.422226C415.35 94.765366 416.69315 93.422226 418.35 93.422226C420.00687 93.422226 421.35 94.765366 421.35 96.422226Z" fill-rule="nonzero"/><path fill="#000000" fill-opacity="0.0" clip-path="url(#id_0)" d="M537.85 96.422226C537.85 98.07908 536.50684 99.422226 534.85 99.422226C533.1931 99.422226 531.85 98.07908 531.85 96.422226C531.85 94.765366 533.1931 93.422226 534.85 93.422226C536.50684 93.422226 537.85 94.765366 537.85 96.422226Z" fill-rule="nonzero"/><path fill="#000000" fill-opacity="0.0" clip-path="url(#id_0)" d="M561.15 96.422226C561.15 98.07908 559.8069 99.422226 558.15 99.422226C556.49316 99.422226 555.15 98.07908 555.15 96.422226C555.15 94.765366 556.49316 93.422226 558.15 93.422226C559.8069 93.422226 561.15 94.765366 561.15 96.422226Z" fill-rule="nonzero"/><path fill="#000000" fill-opacity="0.0" clip-path="url(#id_0)" d="M584.45 96.422226C584.45 98.07908 583.1069 99.422226 581.45 99.422226C579.79315 99.422226 578.45 98.07908 578.45 96.422226C578.45 94.765366 579.79315 93.422226 581.45 93.422226C583.1069 93.422226 584.45 94.765366 584.45 96.422226Z" fill-rule="nonzero"/><path fill="#000000" d="M33.05 332.21564Q33.05 330.6844 33.3625 329.7625Q33.675 328.825 34.284374 328.325Q34.909374 327.825 35.846874 327.825Q36.534374 327.825 37.05 328.10626Q37.58125 328.3875 37.925 328.91876Q38.26875 329.4344 38.45625 330.1844Q38.64375 330.9344 38.64375 332.21564Q38.64375 333.73126 38.33125 334.65314Q38.034374 335.575 37.409374 336.09064Q36.8 336.59064 35.846874 336.59064Q34.6125 336.59064 33.89375 335.7Q33.05 334.6375 33.05 332.21564ZM34.128124 332.21564Q34.128124 334.325 34.628124 335.02814Q35.128124 335.73126 35.846874 335.73126Q36.58125 335.73126 37.065624 335.02814Q37.565624 334.325 37.565624 332.21564Q37.565624 330.09064 37.065624 329.40314Q36.58125 328.7 35.83125 328.7Q35.1125 328.7 34.675 329.3094Q34.128124 330.09064 34.128124 332.21564Z" fill-rule="nonzero"/><path fill="#000000" d="M30.01875 255.06111L28.971874 255.06111L28.971874 248.34236Q28.58125 248.70174 27.95625 249.07674Q27.346874 249.43611 26.8625 249.60799L26.8625 248.59236Q27.7375 248.17049 28.39375 247.59236Q29.065624 246.99861 29.346874 246.43611L30.01875 246.43611L30.01875 255.06111ZM33.05 250.82674Q33.05 249.29549 33.3625 248.37361Q33.675 247.43611 34.284374 246.93611Q34.909374 246.43611 35.846874 246.43611Q36.534374 246.43611 37.05 246.71736Q37.58125 246.99861 37.925 247.52986Q38.26875 248.04549 38.45625 248.79549Q38.64375 249.54549 38.64375 250.82674Q38.64375 252.34236 38.33125 253.26424Q38.034374 254.18611 37.409374 254.70174Q36.8 255.20174 35.846874 255.20174Q34.6125 255.20174 33.89375 254.31111Q33.05 253.24861 33.05 250.82674ZM34.128124 250.82674Q34.128124 252.93611 34.628124 253.63924Q35.128124 254.34236 35.846874 254.34236Q36.58125 254.34236 37.065624 253.63924Q37.565624 252.93611 37.565624 250.82674Q37.565624 248.70174 37.065624 248.01424Q36.58125 247.31111 35.83125 247.31111Q35.1125 247.31111 34.675 247.92049Q34.128124 248.70174 34.128124 250.82674Z" fill-rule="nonzero"/><path fill="#000000" d="M31.596874 172.6566L31.596874 173.67223L25.909374 173.67223Q25.909374 173.29723 26.034374 172.93785Q26.253124 172.35973 26.721874 171.79723Q27.20625 171.23473 28.1125 170.50035Q29.51875 169.3441 30.003124 168.67223Q30.503124 168.00035 30.503124 167.4066Q30.503124 166.7816 30.05 166.35973Q29.596874 165.92223 28.878124 165.92223Q28.1125 165.92223 27.659374 166.37535Q27.20625 166.82848 27.190624 167.64098L26.1125 167.5316Q26.221874 166.31285 26.940624 165.68785Q27.675 165.04723 28.909374 165.04723Q30.14375 165.04723 30.8625 165.73473Q31.58125 166.42223 31.58125 167.43785Q31.58125 167.95348 31.3625 168.45348Q31.159374 168.93785 30.659374 169.50035Q30.175 170.04723 29.05 171.00035Q28.096874 171.79723 27.815624 172.0941Q27.55 172.37535 27.378124 172.6566L31.596874 172.6566ZM33.05 169.43785Q33.05 167.9066 33.3625 166.98473Q33.675 166.04723 34.284374 165.54723Q34.909374 165.04723 35.846874 165.04723Q36.534374 165.04723 37.05 165.32848Q37.58125 165.60973 37.925 166.14098Q38.26875 166.6566 38.45625 167.4066Q38.64375 168.1566 38.64375 169.43785Q38.64375 170.95348 38.33125 171.87535Q38.034374 172.79723 37.409374 173.31285Q36.8 173.81285 35.846874 173.81285Q34.6125 173.81285 33.89375 172.92223Q33.05 171.85973 33.05 169.43785ZM34.128124 169.43785Q34.128124 171.54723 34.628124 172.25035Q35.128124 172.95348 35.846874 172.95348Q36.58125 172.95348 37.065624 172.25035Q37.565624 171.54723 37.565624 169.43785Q37.565624 167.31285 37.065624 166.62535Q36.58125 165.92223 35.83125 165.92223Q35.1125 165.92223 34.675 166.5316Q34.128124 167.31285 34.128124 169.43785Z" fill-rule="nonzero"/><path fill="#000000" d="M26.05 90.01771L27.1125 89.87708Q27.284374 90.76771 27.721874 91.17396Q28.159374 91.56458 28.784374 91.56458Q29.534374 91.56458 30.05 91.04896Q30.565624 90.53333 30.565624 89.76771Q30.565624 89.04896 30.08125 88.58021Q29.6125 88.09583 28.878124 88.09583Q28.58125 88.09583 28.128124 88.22083L28.253124 87.28333Q28.3625 87.29896 28.425 87.29896Q29.096874 87.29896 29.628124 86.95521Q30.175 86.59583 30.175 85.86146Q30.175 85.28333 29.784374 84.90833Q29.39375 84.51771 28.76875 84.51771Q28.159374 84.51771 27.7375 84.90833Q27.33125 85.29896 27.221874 86.06458L26.159374 85.87708Q26.346874 84.83021 27.034374 84.25208Q27.721874 83.65833 28.7375 83.65833Q29.440624 83.65833 30.034374 83.97083Q30.628124 84.26771 30.940624 84.78333Q31.253124 85.29896 31.253124 85.89271Q31.253124 86.43958 30.95625 86.90833Q30.659374 87.36146 30.08125 87.62708Q30.83125 87.79896 31.253124 88.36146Q31.675 88.90833 31.675 89.75208Q31.675 90.87708 30.846874 91.65833Q30.034374 92.43958 28.784374 92.43958Q27.659374 92.43958 26.909374 91.76771Q26.159374 91.08021 26.05 90.01771ZM33.05 88.04896Q33.05 86.51771 33.3625 85.59583Q33.675 84.65833 34.284374 84.15833Q34.909374 83.65833 35.846874 83.65833Q36.534374 83.65833 37.05 83.93958Q37.58125 84.22083 37.925 84.75208Q38.26875 85.26771 38.45625 86.01771Q38.64375 86.76771 38.64375 88.04896Q38.64375 89.56458 38.33125 90.48646Q38.034374 91.40833 37.409374 91.92396Q36.8 92.42396 35.846874 92.42396Q34.6125 92.42396 33.89375 91.53333Q33.05 90.47083 33.05 88.04896ZM34.128124 88.04896Q34.128124 90.15833 34.628124 90.86146Q35.128124 91.56458 35.846874 91.56458Q36.58125 91.56458 37.065624 90.86146Q37.565624 90.15833 37.565624 88.04896Q37.565624 85.92396 37.065624 85.23646Q36.58125 84.53333 35.83125 84.53333Q35.1125 84.53333 34.675 85.14271Q34.128124 85.92396 34.128124 88.04896Z" fill-rule="nonzero"/><path fill="#000000" d="M129.59688 346.6844L130.65938 346.59064Q130.7375 347.2469 131.01875 347.65314Q131.3 348.0594 131.87813 348.325Q132.47188 348.575 133.20625 348.575Q133.84688 348.575 134.34688 348.3875Q134.84688 348.1844 135.08125 347.85626Q135.33125 347.5125 135.33125 347.1219Q135.33125 346.71564 135.09688 346.41876Q134.8625 346.10626 134.33125 345.90314Q133.97188 345.7625 132.78438 345.48126Q131.6125 345.2 131.14375 344.95Q130.51875 344.6219 130.22188 344.15314Q129.925 343.66876 129.925 343.075Q129.925 342.4344 130.28438 341.8719Q130.65938 341.29376 131.3625 341.0125Q132.08125 340.71564 132.94063 340.71564Q133.89375 340.71564 134.62813 341.02814Q135.3625 341.325 135.75313 341.9344Q136.14375 342.52814 136.175 343.27814L135.08125 343.35626Q134.9875 342.54376 134.47188 342.1375Q133.97188 341.71564 132.9875 341.71564Q131.95625 341.71564 131.4875 342.09064Q131.01875 342.46564 131.01875 342.9969Q131.01875 343.46564 131.34688 343.7625Q131.675 344.0594 133.05 344.3719Q134.44063 344.6844 134.95625 344.91876Q135.70625 345.27814 136.06563 345.8094Q136.425 346.325 136.425 347.02814Q136.425 347.71564 136.03438 348.325Q135.64375 348.91876 134.90938 349.2625Q134.175 349.59064 133.25313 349.59064Q132.08125 349.59064 131.28438 349.2625Q130.50313 348.91876 130.05 348.23126Q129.6125 347.54376 129.59688 346.6844ZM141.925 349.45L141.925 348.52814Q141.19063 349.59064 139.94063 349.59064Q139.39375 349.59064 138.90938 349.3875Q138.44063 349.16876 138.20625 348.85626Q137.97188 348.52814 137.87813 348.0594Q137.81563 347.7625 137.81563 347.075L137.81563 343.23126L138.87813 343.23126L138.87813 346.6844Q138.87813 347.4969 138.94063 347.79376Q139.03438 348.2 139.34688 348.45Q139.675 348.6844 140.15938 348.6844Q140.62813 348.6844 141.03438 348.45Q141.45625 348.2 141.62813 347.77814Q141.81563 347.35626 141.81563 346.5594L141.81563 343.23126L142.8625 343.23126L142.8625 349.45L141.925 349.45ZM144.84688 349.45L144.84688 343.23126L145.78438 343.23126L145.78438 344.10626Q146.47188 343.09064 147.76875 343.09064Q148.33125 343.09064 148.8 343.29376Q149.28438 343.4969 149.51875 343.825Q149.75313 344.15314 149.84688 344.59064Q149.89375 344.8875 149.89375 345.6219L149.89375 349.45L148.84688 349.45L148.84688 345.66876Q148.84688 345.0125 148.72188 344.7Q148.59688 344.3875 148.28438 344.2Q147.97188 343.9969 147.55 343.9969Q146.87813 343.9969 146.37813 344.4344Q145.89375 344.85626 145.89375 346.04376L145.89375 349.45L144.84688 349.45ZM158.51875 349.45L157.47188 349.45L157.47188 342.73126Q157.08125 343.09064 156.45625 343.46564Q155.84688 343.825 155.3625 343.9969L155.3625 342.98126Q156.2375 342.5594 156.89375 341.98126Q157.56563 341.3875 157.84688 340.825L158.51875 340.825L158.51875 349.45ZM161.6125 341.98126L161.6125 340.96564L167.175 340.96564L167.175 341.79376Q166.3625 342.66876 165.55 344.1219Q164.75313 345.5594 164.31563 347.09064Q163.9875 348.16876 163.90938 349.45L162.81563 349.45Q162.83125 348.4344 163.20625 346.9969Q163.59688 345.5594 164.3 344.23126Q165.01875 342.90314 165.83125 341.98126L161.6125 341.98126ZM168.05 349.59064L170.53438 340.71564L171.37813 340.71564L168.89375 349.59064L168.05 349.59064ZM171.55 347.2L172.65938 347.10626Q172.78438 347.91876 173.22188 348.325Q173.675 348.73126 174.31563 348.73126Q175.06563 348.73126 175.59688 348.15314Q176.12813 347.575 176.12813 346.6375Q176.12813 345.73126 175.6125 345.21564Q175.1125 344.6844 174.28438 344.6844Q173.78438 344.6844 173.3625 344.91876Q172.95625 345.15314 172.72188 345.5125L171.7375 345.3875L172.56563 340.98126L176.84688 340.98126L176.84688 341.98126L173.40938 341.98126L172.95625 344.29376Q173.72188 343.7469 174.56563 343.7469Q175.69063 343.7469 176.45625 344.52814Q177.2375 345.3094 177.2375 346.54376Q177.2375 347.7 176.56563 348.5594Q175.7375 349.59064 174.31563 349.59064Q173.14375 349.59064 172.39375 348.9344Q171.65938 348.27814 171.55 347.2ZM178.05 349.59064L180.53438 340.71564L181.37813 340.71564L178.89375 349.59064L178.05 349.59064ZM187.09688 348.4344L187.09688 349.45L181.40938 349.45Q181.40938 349.075 181.53438 348.71564Q181.75313 348.1375 182.22188 347.575Q182.70625 347.0125 183.6125 346.27814Q185.01875 345.1219 185.50313 344.45Q186.00313 343.77814 186.00313 343.1844Q186.00313 342.5594 185.55 342.1375Q185.09688 341.7 184.37813 341.7Q183.6125 341.7 183.15938 342.15314Q182.70625 342.60626 182.69063 343.41876L181.6125 343.3094Q181.72188 342.09064 182.44063 341.46564Q183.175 340.825 184.40938 340.825Q185.64375 340.825 186.3625 341.5125Q187.08125 342.2 187.08125 343.21564Q187.08125 343.73126 186.8625 344.23126Q186.65938 344.71564 186.15938 345.27814Q185.675 345.825 184.55 346.77814Q183.59688 347.575 183.31563 347.8719Q183.05 348.15314 182.87813 348.4344L187.09688 348.4344ZM188.55 345.21564Q188.55 343.6844 188.8625 342.7625Q189.175 341.825 189.78438 341.325Q190.40938 340.825 191.34688 340.825Q192.03438 340.825 192.55 341.10626Q193.08125 341.3875 193.425 341.91876Q193.76875 342.4344 193.95625 343.1844Q194.14375 343.9344 194.14375 345.21564Q194.14375 346.73126 193.83125 347.65314Q193.53438 348.575 192.90938 349.09064Q192.3 349.59064 191.34688 349.59064Q190.1125 349.59064 189.39375 348.7Q188.55 347.6375 188.55 345.21564ZM189.62813 345.21564Q189.62813 347.325 190.12813 348.02814Q190.62813 348.73126 191.34688 348.73126Q192.08125 348.73126 192.56563 348.02814Q193.06563 347.325 193.06563 345.21564Q193.06563 343.09064 192.56563 342.40314Q192.08125 341.7 191.33125 341.7Q190.6125 341.7 190.175 342.3094Q189.62813 343.09064 189.62813 345.21564Z" fill-rule="nonzero"/><path fill="#000000" d="M292.69687 346.6844L293.75937 346.59064Q293.8375 347.2469 294.11874 347.65314Q294.4 348.0594 294.97812 348.325Q295.57187 348.575 296.30624 348.575Q296.94687 348.575 297.44687 348.3875Q297.94687 348.1844 298.18124 347.85626Q298.43124 347.5125 298.43124 347.1219Q298.43124 346.71564 298.19687 346.41876Q297.9625 346.10626 297.43124 345.90314Q297.07187 345.7625 295.88437 345.48126Q294.7125 345.2 294.24374 344.95Q293.61874 344.6219 293.32187 344.15314Q293.025 343.66876 293.025 343.075Q293.025 342.4344 293.38437 341.8719Q293.75937 341.29376 294.4625 341.0125Q295.18124 340.71564 296.04062 340.71564Q296.99374 340.71564 297.72812 341.02814Q298.4625 341.325 298.85312 341.9344Q299.24374 342.52814 299.275 343.27814L298.18124 343.35626Q298.0875 342.54376 297.57187 342.1375Q297.07187 341.71564 296.0875 341.71564Q295.05624 341.71564 294.5875 342.09064Q294.11874 342.46564 294.11874 342.9969Q294.11874 343.46564 294.44687 343.7625Q294.775 344.0594 296.15 344.3719Q297.54062 344.6844 298.05624 344.91876Q298.80624 345.27814 299.16562 345.8094Q299.525 346.325 299.525 347.02814Q299.525 347.71564 299.13437 348.325Q298.74374 348.91876 298.00937 349.2625Q297.275 349.59064 296.35312 349.59064Q295.18124 349.59064 294.38437 349.2625Q293.60312 348.91876 293.15 348.23126Q292.7125 347.54376 292.69687 346.6844ZM305.025 349.45L305.025 348.52814Q304.29062 349.59064 303.04062 349.59064Q302.49374 349.59064 302.00937 349.3875Q301.54062 349.16876 301.30624 348.85626Q301.07187 348.52814 300.97812 348.0594Q300.91562 347.7625 300.91562 347.075L300.91562 343.23126L301.97812 343.23126L301.97812 346.6844Q301.97812 347.4969 302.04062 347.79376Q302.13437 348.2 302.44687 348.45Q302.775 348.6844 303.25937 348.6844Q303.72812 348.6844 304.13437 348.45Q304.55624 348.2 304.72812 347.77814Q304.91562 347.35626 304.91562 346.5594L304.91562 343.23126L305.9625 343.23126L305.9625 349.45L305.025 349.45ZM307.94687 349.45L307.94687 343.23126L308.88437 343.23126L308.88437 344.10626Q309.57187 343.09064 310.86874 343.09064Q311.43124 343.09064 311.9 343.29376Q312.38437 343.4969 312.61874 343.825Q312.85312 344.15314 312.94687 344.59064Q312.99374 344.8875 312.99374 345.6219L312.99374 349.45L311.94687 349.45L311.94687 345.66876Q311.94687 345.0125 311.82187 344.7Q311.69687 344.3875 311.38437 344.2Q311.07187 343.9969 310.65 343.9969Q309.97812 343.9969 309.47812 344.4344Q308.99374 344.85626 308.99374 346.04376L308.99374 349.45L307.94687 349.45ZM323.19687 348.4344L323.19687 349.45L317.50937 349.45Q317.50937 349.075 317.63437 348.71564Q317.85312 348.1375 318.32187 347.575Q318.80624 347.0125 319.7125 346.27814Q321.11874 345.1219 321.60312 344.45Q322.10312 343.77814 322.10312 343.1844Q322.10312 342.5594 321.65 342.1375Q321.19687 341.7 320.47812 341.7Q319.7125 341.7 319.25937 342.15314Q318.80624 342.60626 318.79062 343.41876L317.7125 343.3094Q317.82187 342.09064 318.54062 341.46564Q319.275 340.825 320.50937 340.825Q321.74374 340.825 322.4625 341.5125Q323.18124 342.2 323.18124 343.21564Q323.18124 343.73126 322.9625 344.23126Q322.75937 344.71564 322.25937 345.27814Q321.775 345.825 320.65 346.77814Q319.69687 347.575 319.41562 347.8719Q319.15 348.15314 318.97812 348.4344L323.19687 348.4344ZM328.025 349.45L328.025 347.3875L324.30624 347.3875L324.30624 346.41876L328.22812 340.85626L329.0875 340.85626L329.0875 346.41876L330.24374 346.41876L330.24374 347.3875L329.0875 347.3875L329.0875 349.45L328.025 349.45ZM328.025 346.41876L328.025 342.5594L325.3375 346.41876L328.025 346.41876ZM331.15 349.59064L333.63437 340.71564L334.47812 340.71564L331.99374 349.59064L331.15 349.59064ZM334.65 347.2L335.75937 347.10626Q335.88437 347.91876 336.32187 348.325Q336.775 348.73126 337.41562 348.73126Q338.16562 348.73126 338.69687 348.15314Q339.22812 347.575 339.22812 346.6375Q339.22812 345.73126 338.7125 345.21564Q338.2125 344.6844 337.38437 344.6844Q336.88437 344.6844 336.4625 344.91876Q336.05624 345.15314 335.82187 345.5125L334.8375 345.3875L335.66562 340.98126L339.94687 340.98126L339.94687 341.98126L336.50937 341.98126L336.05624 344.29376Q336.82187 343.7469 337.66562 343.7469Q338.79062 343.7469 339.55624 344.52814Q340.3375 345.3094 340.3375 346.54376Q340.3375 347.7 339.66562 348.5594Q338.8375 349.59064 337.41562 349.59064Q336.24374 349.59064 335.49374 348.9344Q334.75937 348.27814 334.65 347.2ZM341.15 349.59064L343.63437 340.71564L344.47812 340.71564L341.99374 349.59064L341.15 349.59064ZM350.19687 348.4344L350.19687 349.45L344.50937 349.45Q344.50937 349.075 344.63437 348.71564Q344.85312 348.1375 345.32187 347.575Q345.80624 347.0125 346.7125 346.27814Q348.11874 345.1219 348.60312 344.45Q349.10312 343.77814 349.10312 343.1844Q349.10312 342.5594 348.65 342.1375Q348.19687 341.7 347.47812 341.7Q346.7125 341.7 346.25937 342.15314Q345.80624 342.60626 345.79062 343.41876L344.7125 343.3094Q344.82187 342.09064 345.54062 341.46564Q346.275 340.825 347.50937 340.825Q348.74374 340.825 349.4625 341.5125Q350.18124 342.2 350.18124 343.21564Q350.18124 343.73126 349.9625 344.23126Q349.75937 344.71564 349.25937 345.27814Q348.775 345.825 347.65 346.77814Q346.69687 347.575 346.41562 347.8719Q346.15 348.15314 345.97812 348.4344L350.19687 348.4344ZM351.65 345.21564Q351.65 343.6844 351.9625 342.7625Q352.275 341.825 352.88437 341.325Q353.50937 340.825 354.44687 340.825Q355.13437 340.825 355.65 341.10626Q356.18124 341.3875 356.525 341.91876Q356.86874 342.4344 357.05624 343.1844Q357.24374 343.9344 357.24374 345.21564Q357.24374 346.73126 356.93124 347.65314Q356.63437 348.575 356.00937 349.09064Q355.4 349.59064 354.44687 349.59064Q353.2125 349.59064 352.49374 348.7Q351.65 347.6375 351.65 345.21564ZM352.72812 345.21564Q352.72812 347.325 353.22812 348.02814Q353.72812 348.73126 354.44687 348.73126Q355.18124 348.73126 355.66562 348.02814Q356.16562 347.325 356.16562 345.21564Q356.16562 343.09064 355.66562 342.40314Q355.18124 341.7 354.43124 341.7Q353.7125 341.7 353.275 342.3094Q352.72812 343.09064 352.72812 345.21564Z" fill-rule="nonzero"/><path fill="#000000" d="M455.79688 346.6844L456.85938 346.59064Q456.9375 347.2469 457.21875 347.65314Q457.5 348.0594 458.07812 348.325Q458.67188 348.575 459.40625 348.575Q460.04688 348.575 460.54688 348.3875Q461.04688 348.1844 461.28125 347.85626Q461.53125 347.5125 461.53125 347.1219Q461.53125 346.71564 461.29688 346.41876Q461.0625 346.10626 460.53125 345.90314Q460.17188 345.7625 458.98438 345.48126Q457.8125 345.2 457.34375 344.95Q456.71875 344.6219 456.42188 344.15314Q456.125 343.66876 456.125 343.075Q456.125 342.4344 456.48438 341.8719Q456.85938 341.29376 457.5625 341.0125Q458.28125 340.71564 459.14062 340.71564Q460.09375 340.71564 460.82812 341.02814Q461.5625 341.325 461.95312 341.9344Q462.34375 342.52814 462.375 343.27814L461.28125 343.35626Q461.1875 342.54376 460.67188 342.1375Q460.17188 341.71564 459.1875 341.71564Q458.15625 341.71564 457.6875 342.09064Q457.21875 342.46564 457.21875 342.9969Q457.21875 343.46564 457.54688 343.7625Q457.875 344.0594 459.25 344.3719Q460.64062 344.6844 461.15625 344.91876Q461.90625 345.27814 462.26562 345.8094Q462.625 346.325 462.625 347.02814Q462.625 347.71564 462.23438 348.325Q461.84375 348.91876 461.10938 349.2625Q460.375 349.59064 459.45312 349.59064Q458.28125 349.59064 457.48438 349.2625Q456.70312 348.91876 456.25 348.23126Q455.8125 347.54376 455.79688 346.6844ZM468.125 349.45L468.125 348.52814Q467.39062 349.59064 466.14062 349.59064Q465.59375 349.59064 465.10938 349.3875Q464.64062 349.16876 464.40625 348.85626Q464.17188 348.52814 464.07812 348.0594Q464.01562 347.7625 464.01562 347.075L464.01562 343.23126L465.07812 343.23126L465.07812 346.6844Q465.07812 347.4969 465.14062 347.79376Q465.23438 348.2 465.54688 348.45Q465.875 348.6844 466.35938 348.6844Q466.82812 348.6844 467.23438 348.45Q467.65625 348.2 467.82812 347.77814Q468.01562 347.35626 468.01562 346.5594L468.01562 343.23126L469.0625 343.23126L469.0625 349.45L468.125 349.45ZM471.04688 349.45L471.04688 343.23126L471.98438 343.23126L471.98438 344.10626Q472.67188 343.09064 473.96875 343.09064Q474.53125 343.09064 475.0 343.29376Q475.48438 343.4969 475.71875 343.825Q475.95312 344.15314 476.04688 344.59064Q476.09375 344.8875 476.09375 345.6219L476.09375 349.45L475.04688 349.45L475.04688 345.66876Q475.04688 345.0125 474.92188 344.7Q474.79688 344.3875 474.48438 344.2Q474.17188 343.9969 473.75 343.9969Q473.07812 343.9969 472.57812 344.4344Q472.09375 344.85626 472.09375 346.04376L472.09375 349.45L471.04688 349.45ZM480.75 347.1844L481.8125 347.04376Q481.98438 347.9344 482.42188 348.34064Q482.85938 348.73126 483.48438 348.73126Q484.23438 348.73126 484.75 348.21564Q485.26562 347.7 485.26562 346.9344Q485.26562 346.21564 484.78125 345.7469Q484.3125 345.2625 483.57812 345.2625Q483.28125 345.2625 482.82812 345.3875L482.95312 344.45Q483.0625 344.46564 483.125 344.46564Q483.79688 344.46564 484.32812 344.1219Q484.875 343.7625 484.875 343.02814Q484.875 342.45 484.48438 342.075Q484.09375 341.6844 483.46875 341.6844Q482.85938 341.6844 482.4375 342.075Q482.03125 342.46564 481.92188 343.23126L480.85938 343.04376Q481.04688 341.9969 481.73438 341.41876Q482.42188 340.825 483.4375 340.825Q484.14062 340.825 484.73438 341.1375Q485.32812 341.4344 485.64062 341.95Q485.95312 342.46564 485.95312 343.0594Q485.95312 343.60626 485.65625 344.075Q485.35938 344.52814 484.78125 344.79376Q485.53125 344.96564 485.95312 345.52814Q486.375 346.075 486.375 346.91876Q486.375 348.04376 485.54688 348.825Q484.73438 349.60626 483.48438 349.60626Q482.35938 349.60626 481.60938 348.9344Q480.85938 348.2469 480.75 347.1844ZM491.71875 349.45L490.67188 349.45L490.67188 342.73126Q490.28125 343.09064 489.65625 343.46564Q489.04688 343.825 488.5625 343.9969L488.5625 342.98126Q489.4375 342.5594 490.09375 341.98126Q490.76562 341.3875 491.04688 340.825L491.71875 340.825L491.71875 349.45ZM494.25 349.59064L496.73438 340.71564L497.57812 340.71564L495.09375 349.59064L494.25 349.59064ZM497.75 347.2L498.85938 347.10626Q498.98438 347.91876 499.42188 348.325Q499.875 348.73126 500.51562 348.73126Q501.26562 348.73126 501.79688 348.15314Q502.32812 347.575 502.32812 346.6375Q502.32812 345.73126 501.8125 345.21564Q501.3125 344.6844 500.48438 344.6844Q499.98438 344.6844 499.5625 344.91876Q499.15625 345.15314 498.92188 345.5125L497.9375 345.3875L498.76562 340.98126L503.04688 340.98126L503.04688 341.98126L499.60938 341.98126L499.15625 344.29376Q499.92188 343.7469 500.76562 343.7469Q501.89062 343.7469 502.65625 344.52814Q503.4375 345.3094 503.4375 346.54376Q503.4375 347.7 502.76562 348.5594Q501.9375 349.59064 500.51562 349.59064Q499.34375 349.59064 498.59375 348.9344Q497.85938 348.27814 497.75 347.2ZM504.25 349.59064L506.73438 340.71564L507.57812 340.71564L505.09375 349.59064L504.25 349.59064ZM513.2969 348.4344L513.2969 349.45L507.60938 349.45Q507.60938 349.075 507.73438 348.71564Q507.95312 348.1375 508.42188 347.575Q508.90625 347.0125 509.8125 346.27814Q511.21875 345.1219 511.70312 344.45Q512.2031 343.77814 512.2031 343.1844Q512.2031 342.5594 511.75 342.1375Q511.29688 341.7 510.57812 341.7Q509.8125 341.7 509.35938 342.15314Q508.90625 342.60626 508.89062 343.41876L507.8125 343.3094Q507.92188 342.09064 508.64062 341.46564Q509.375 340.825 510.60938 340.825Q511.84375 340.825 512.5625 341.5125Q513.28125 342.2 513.28125 343.21564Q513.28125 343.73126 513.0625 344.23126Q512.8594 344.71564 512.3594 345.27814Q511.875 345.825 510.75 346.77814Q509.79688 347.575 509.51562 347.8719Q509.25 348.15314 509.07812 348.4344L513.2969 348.4344ZM514.75 345.21564Q514.75 343.6844 515.0625 342.7625Q515.375 341.825 515.9844 341.325Q516.6094 340.825 517.5469 340.825Q518.2344 340.825 518.75 341.10626Q519.28125 341.3875 519.625 341.91876Q519.96875 342.4344 520.15625 343.1844Q520.34375 343.9344 520.34375 345.21564Q520.34375 346.73126 520.03125 347.65314Q519.7344 348.575 519.1094 349.09064Q518.5 349.59064 517.5469 349.59064Q516.3125 349.59064 515.59375 348.7Q514.75 347.6375 514.75 345.21564ZM515.8281 345.21564Q515.8281 347.325 516.3281 348.02814Q516.8281 348.73126 517.5469 348.73126Q518.28125 348.73126 518.7656 348.02814Q519.2656 347.325 519.2656 345.21564Q519.2656 343.09064 518.7656 342.40314Q518.28125 341.7 517.53125 341.7Q516.8125 341.7 516.375 342.3094Q515.8281 343.09064 515.8281 345.21564Z" fill-rule="nonzero"/><path stroke="#4285f4" stroke-width="4.0" stroke-linecap="butt" d="M144.5 61.916668L156.5 61.916668" fill-rule="nonzero"/><path fill="#1a1a1a" d="M165.42188 65.916664L165.42188 57.322914L168.39062 57.322914Q169.39062 57.322914 169.92188 57.447914Q170.65625 57.61979 171.17188 58.05729Q171.85938 58.635414 172.1875 59.541664Q172.53125 60.43229 172.53125 61.572914Q172.53125 62.55729 172.29688 63.30729Q172.07812 64.05729 171.71875 64.55729Q171.35938 65.05729 170.92188 65.33854Q170.5 65.61979 169.90625 65.77604Q169.3125 65.916664 168.53125 65.916664L165.42188 65.916664ZM166.5625 64.90104L168.39062 64.90104Q169.25 64.90104 169.73438 64.74479Q170.21875 64.58854 170.5 64.291664Q170.90625 63.90104 171.125 63.21354Q171.35938 62.52604 171.35938 61.55729Q171.35938 60.21354 170.90625 59.49479Q170.46875 58.760414 169.84375 58.510414Q169.375 58.33854 168.375 58.33854L166.5625 58.33854L166.5625 64.90104ZM174.29688 58.541664L174.29688 57.322914L175.35938 57.322914L175.35938 58.541664L174.29688 58.541664ZM174.29688 65.916664L174.29688 59.697914L175.35938 59.697914L175.35938 65.916664L174.29688 65.916664ZM176.875 64.05729L177.90625 63.90104Q178.0 64.52604 178.39062 64.854164Q178.79688 65.18229 179.53125 65.18229Q180.25 65.18229 180.59375 64.90104Q180.95312 64.604164 180.95312 64.197914Q180.95312 63.83854 180.64062 63.635414Q180.42188 63.49479 179.5625 63.27604Q178.40625 62.979164 177.95312 62.77604Q177.51562 62.55729 177.28125 62.18229Q177.04688 61.80729 177.04688 61.33854Q177.04688 60.93229 177.23438 60.572914Q177.42188 60.21354 177.75 59.979164Q178.0 59.80729 178.42188 59.68229Q178.84375 59.55729 179.34375 59.55729Q180.0625 59.55729 180.60938 59.77604Q181.17188 59.979164 181.4375 60.33854Q181.70312 60.697914 181.79688 61.291664L180.76562 61.43229Q180.70312 60.96354 180.35938 60.697914Q180.03125 60.416664 179.40625 60.416664Q178.6875 60.416664 178.375 60.666664Q178.0625 60.90104 178.0625 61.229164Q178.0625 61.43229 178.1875 61.58854Q178.32812 61.760414 178.59375 61.86979Q178.75 61.93229 179.53125 62.135414Q180.65625 62.447914 181.09375 62.635414Q181.53125 62.822914 181.78125 63.18229Q182.03125 63.541664 182.03125 64.08854Q182.03125 64.61979 181.71875 65.08854Q181.42188 65.541664 180.84375 65.80729Q180.26562 66.05729 179.53125 66.05729Q178.3125 66.05729 177.67188 65.55729Q177.04688 65.041664 176.875 64.05729ZM187.35938 63.635414L188.39062 63.77604Q188.21875 64.83854 187.51562 65.447914Q186.8125 66.05729 185.79688 66.05729Q184.51562 66.05729 183.73438 65.229164Q182.96875 64.385414 182.96875 62.822914Q182.96875 61.822914 183.29688 61.072914Q183.64062 60.30729 184.3125 59.93229Q185.0 59.55729 185.8125 59.55729Q186.8125 59.55729 187.45312 60.072914Q188.10938 60.572914 188.29688 61.52604L187.26562 61.68229Q187.125 61.05729 186.75 60.74479Q186.375 60.416664 185.84375 60.416664Q185.04688 60.416664 184.54688 60.99479Q184.04688 61.55729 184.04688 62.791664Q184.04688 64.05729 184.53125 64.61979Q185.01562 65.18229 185.78125 65.18229Q186.40625 65.18229 186.8125 64.80729Q187.23438 64.43229 187.35938 63.635414ZM193.375 65.916664L193.375 64.99479Q192.64062 66.05729 191.39062 66.05729Q190.84375 66.05729 190.35938 65.854164Q189.89062 65.635414 189.65625 65.322914Q189.42188 64.99479 189.32812 64.52604Q189.26562 64.229164 189.26562 63.541664L189.26562 59.697914L190.32812 59.697914L190.32812 63.15104Q190.32812 63.96354 190.39062 64.260414Q190.48438 64.666664 190.79688 64.916664Q191.125 65.15104 191.60938 65.15104Q192.07812 65.15104 192.48438 64.916664Q192.90625 64.666664 193.07812 64.24479Q193.26562 63.822914 193.26562 63.02604L193.26562 59.697914L194.3125 59.697914L194.3125 65.916664L193.375 65.916664ZM195.875 64.05729L196.90625 63.90104Q197.0 64.52604 197.39062 64.854164Q197.79688 65.18229 198.53125 65.18229Q199.25 65.18229 199.59375 64.90104Q199.95312 64.604164 199.95312 64.197914Q199.95312 63.83854 199.64062 63.635414Q199.42188 63.49479 198.5625 63.27604Q197.40625 62.979164 196.95312 62.77604Q196.51562 62.55729 196.28125 62.18229Q196.04688 61.80729 196.04688 61.33854Q196.04688 60.93229 196.23438 60.572914Q196.42188 60.21354 196.75 59.979164Q197.0 59.80729 197.42188 59.68229Q197.84375 59.55729 198.34375 59.55729Q199.0625 59.55729 199.60938 59.77604Q200.17188 59.979164 200.4375 60.33854Q200.70312 60.697914 200.79688 61.291664L199.76562 61.43229Q199.70312 60.96354 199.35938 60.697914Q199.03125 60.416664 198.40625 60.416664Q197.6875 60.416664 197.375 60.666664Q197.0625 60.90104 197.0625 61.229164Q197.0625 61.43229 197.1875 61.58854Q197.32812 61.760414 197.59375 61.86979Q197.75 61.93229 198.53125 62.135414Q199.65625 62.447914 200.09375 62.635414Q200.53125 62.822914 200.78125 63.18229Q201.03125 63.541664 201.03125 64.08854Q201.03125 64.61979 200.71875 65.08854Q200.42188 65.541664 199.84375 65.80729Q199.26562 66.05729 198.53125 66.05729Q197.3125 66.05729 196.67188 65.55729Q196.04688 65.041664 195.875 64.05729ZM201.875 64.05729L202.90625 63.90104Q203.0 64.52604 203.39062 64.854164Q203.79688 65.18229 204.53125 65.18229Q205.25 65.18229 205.59375 64.90104Q205.95312 64.604164 205.95312 64.197914Q205.95312 63.83854 205.64062 63.635414Q205.42188 63.49479 204.5625 63.27604Q203.40625 62.979164 202.95312 62.77604Q202.51562 62.55729 202.28125 62.18229Q202.04688 61.80729 202.04688 61.33854Q202.04688 60.93229 202.23438 60.572914Q202.42188 60.21354 202.75 59.979164Q203.0 59.80729 203.42188 59.68229Q203.84375 59.55729 204.34375 59.55729Q205.0625 59.55729 205.60938 59.77604Q206.17188 59.979164 206.4375 60.33854Q206.70312 60.697914 206.79688 61.291664L205.76562 61.43229Q205.70312 60.96354 205.35938 60.697914Q205.03125 60.416664 204.40625 60.416664Q203.6875 60.416664 203.375 60.666664Q203.0625 60.90104 203.0625 61.229164Q203.0625 61.43229 203.1875 61.58854Q203.32812 61.760414 203.59375 61.86979Q203.75 61.93229 204.53125 62.135414Q205.65625 62.447914 206.09375 62.635414Q206.53125 62.822914 206.78125 63.18229Q207.03125 63.541664 207.03125 64.08854Q207.03125 64.61979 206.71875 65.08854Q206.42188 65.541664 205.84375 65.80729Q205.26562 66.05729 204.53125 66.05729Q203.3125 66.05729 202.67188 65.55729Q202.04688 65.041664 201.875 64.05729ZM208.29688 58.541664L208.29688 57.322914L209.35938 57.322914L209.35938 58.541664L208.29688 58.541664ZM208.29688 65.916664L208.29688 59.697914L209.35938 59.697914L209.35938 65.916664L208.29688 65.916664ZM210.90625 62.80729Q210.90625 61.072914 211.85938 60.24479Q212.65625 59.55729 213.8125 59.55729Q215.09375 59.55729 215.90625 60.40104Q216.73438 61.229164 216.73438 62.71354Q216.73438 63.916664 216.375 64.604164Q216.01562 65.291664 215.3125 65.68229Q214.625 66.05729 213.8125 66.05729Q212.51562 66.05729 211.70312 65.229164Q210.90625 64.385414 210.90625 62.80729ZM211.98438 62.80729Q211.98438 63.99479 212.5 64.58854Q213.03125 65.18229 213.8125 65.18229Q214.60938 65.18229 215.125 64.58854Q215.64062 63.99479 215.64062 62.77604Q215.64062 61.61979 215.10938 61.02604Q214.59375 60.43229 213.8125 60.43229Q213.03125 60.43229 212.5 61.02604Q211.98438 61.604164 211.98438 62.80729ZM218.29688 65.916664L218.29688 59.697914L219.23438 59.697914L219.23438 60.572914Q219.92188 59.55729 221.21875 59.55729Q221.78125 59.55729 222.25 59.760414Q222.73438 59.96354 222.96875 60.291664Q223.20312 60.61979 223.29688 61.05729Q223.34375 61.354164 223.34375 62.08854L223.34375 65.916664L222.29688 65.916664L222.29688 62.135414Q222.29688 61.479164 222.17188 61.166664Q222.04688 60.854164 221.73438 60.666664Q221.42188 60.46354 221.0 60.46354Q220.32812 60.46354 219.82812 60.90104Q219.34375 61.322914 219.34375 62.510414L219.34375 65.916664L218.29688 65.916664ZM228.04688 63.15104L229.10938 63.05729Q229.1875 63.71354 229.46875 64.11979Q229.75 64.52604 230.32812 64.791664Q230.92188 65.041664 231.65625 65.041664Q232.29688 65.041664 232.79688 64.854164Q233.29688 64.65104 233.53125 64.322914Q233.78125 63.979164 233.78125 63.58854Q233.78125 63.18229 233.54688 62.885414Q233.3125 62.572914 232.78125 62.36979Q232.42188 62.229164 231.23438 61.947914Q230.0625 61.666664 229.59375 61.416664Q228.96875 61.08854 228.67188 60.61979Q228.375 60.135414 228.375 59.541664Q228.375 58.90104 228.73438 58.33854Q229.10938 57.760414 229.8125 57.479164Q230.53125 57.18229 231.39062 57.18229Q232.34375 57.18229 233.07812 57.49479Q233.8125 57.791664 234.20312 58.40104Q234.59375 58.99479 234.625 59.74479L233.53125 59.822914Q233.4375 59.010414 232.92188 58.604164Q232.42188 58.18229 231.4375 58.18229Q230.40625 58.18229 229.9375 58.55729Q229.46875 58.93229 229.46875 59.46354Q229.46875 59.93229 229.79688 60.229164Q230.125 60.52604 231.5 60.83854Q232.89062 61.15104 233.40625 61.385414Q234.15625 61.74479 234.51562 62.27604Q234.875 62.791664 234.875 63.49479Q234.875 64.18229 234.48438 64.791664Q234.09375 65.385414 233.35938 65.729164Q232.625 66.05729 231.70312 66.05729Q230.53125 66.05729 229.73438 65.729164Q228.95312 65.385414 228.5 64.697914Q228.0625 64.010414 228.04688 63.15104ZM240.54688 63.916664L241.64062 64.041664Q241.39062 64.99479 240.6875 65.52604Q239.98438 66.05729 238.90625 66.05729Q237.54688 66.05729 236.73438 65.21354Q235.9375 64.36979 235.9375 62.854164Q235.9375 61.291664 236.75 60.43229Q237.5625 59.55729 238.84375 59.55729Q240.09375 59.55729 240.875 60.40104Q241.67188 61.24479 241.67188 62.791664Q241.67188 62.885414 241.67188 63.072914L237.03125 63.072914Q237.09375 64.104164 237.60938 64.65104Q238.125 65.18229 238.90625 65.18229Q239.48438 65.18229 239.89062 64.885414Q240.3125 64.572914 240.54688 63.916664ZM237.09375 62.21354L240.5625 62.21354Q240.5 61.416664 240.17188 61.02604Q239.65625 60.416664 238.85938 60.416664Q238.125 60.416664 237.625 60.90104Q237.14062 61.385414 237.09375 62.21354ZM242.875 64.05729L243.90625 63.90104Q244.0 64.52604 244.39062 64.854164Q244.79688 65.18229 245.53125 65.18229Q246.25 65.18229 246.59375 64.90104Q246.95312 64.604164 246.95312 64.197914Q246.95312 63.83854 246.64062 63.635414Q246.42188 63.49479 245.5625 63.27604Q244.40625 62.979164 243.95312 62.77604Q243.51562 62.55729 243.28125 62.18229Q243.04688 61.80729 243.04688 61.33854Q243.04688 60.93229 243.23438 60.572914Q243.42188 60.21354 243.75 59.979164Q244.0 59.80729 244.42188 59.68229Q244.84375 59.55729 245.34375 59.55729Q246.0625 59.55729 246.60938 59.77604Q247.17188 59.979164 247.4375 60.33854Q247.70312 60.697914 247.79688 61.291664L246.76562 61.43229Q246.70312 60.96354 246.35938 60.697914Q246.03125 60.416664 245.40625 60.416664Q244.6875 60.416664 244.375 60.666664Q244.0625 60.90104 244.0625 61.229164Q244.0625 61.43229 244.1875 61.58854Q244.32812 61.760414 244.59375 61.86979Q244.75 61.93229 245.53125 62.135414Q246.65625 62.447914 247.09375 62.635414Q247.53125 62.822914 247.78125 63.18229Q248.03125 63.541664 248.03125 64.08854Q248.03125 64.61979 247.71875 65.08854Q247.42188 65.541664 246.84375 65.80729Q246.26562 66.05729 245.53125 66.05729Q244.3125 66.05729 243.67188 65.55729Q243.04688 65.041664 242.875 64.05729ZM248.875 64.05729L249.90625 63.90104Q250.0 64.52604 250.39062 64.854164Q250.79688 65.18229 251.53125 65.18229Q252.25 65.18229 252.59375 64.90104Q252.95312 64.604164 252.95312 64.197914Q252.95312 63.83854 252.64062 63.635414Q252.42188 63.49479 251.5625 63.27604Q250.40625 62.979164 249.95312 62.77604Q249.51562 62.55729 249.28125 62.18229Q249.04688 61.80729 249.04688 61.33854Q249.04688 60.93229 249.23438 60.572914Q249.42188 60.21354 249.75 59.979164Q250.0 59.80729 250.42188 59.68229Q250.84375 59.55729 251.34375 59.55729Q252.0625 59.55729 252.60938 59.77604Q253.17188 59.979164 253.4375 60.33854Q253.70312 60.697914 253.79688 61.291664L252.76562 61.43229Q252.70312 60.96354 252.35938 60.697914Q252.03125 60.416664 251.40625 60.416664Q250.6875 60.416664 250.375 60.666664Q250.0625 60.90104 250.0625 61.229164Q250.0625 61.43229 250.1875 61.58854Q250.32812 61.760414 250.59375 61.86979Q250.75 61.93229 251.53125 62.135414Q252.65625 62.447914 253.09375 62.635414Q253.53125 62.822914 253.78125 63.18229Q254.03125 63.541664 254.03125 64.08854Q254.03125 64.61979 253.71875 65.08854Q253.42188 65.541664 252.84375 65.80729Q252.26562 66.05729 251.53125 66.05729Q250.3125 66.05729 249.67188 65.55729Q249.04688 65.041664 248.875 64.05729ZM255.29688 58.541664L255.29688 57.322914L256.35938 57.322914L256.35938 58.541664L255.29688 58.541664ZM255.29688 65.916664L255.29688 59.697914L256.35938 59.697914L256.35938 65.916664L255.29688 65.916664ZM257.90625 62.80729Q257.90625 61.072914 258.85938 60.24479Q259.65625 59.55729 260.8125 59.55729Q262.09375 59.55729 262.90625 60.40104Q263.73438 61.229164 263.73438 62.71354Q263.73438 63.916664 263.375 64.604164Q263.01562 65.291664 262.3125 65.68229Q261.625 66.05729 260.8125 66.05729Q259.51562 66.05729 258.70312 65.229164Q257.90625 64.385414 257.90625 62.80729ZM258.98438 62.80729Q258.98438 63.99479 259.5 64.58854Q260.03125 65.18229 260.8125 65.18229Q261.60938 65.18229 262.125 64.58854Q262.64062 63.99479 262.64062 62.77604Q262.64062 61.61979 262.10938 61.02604Q261.59375 60.43229 260.8125 60.43229Q260.03125 60.43229 259.5 61.02604Q258.98438 61.604164 258.98438 62.80729ZM265.29688 65.916664L265.29688 59.697914L266.23438 59.697914L266.23438 60.572914Q266.92188 59.55729 268.21875 59.55729Q268.78125 59.55729 269.25 59.760414Q269.73438 59.96354 269.96875 60.291664Q270.20312 60.61979 270.29688 61.05729Q270.34375 61.354164 270.34375 62.08854L270.34375 65.916664L269.29688 65.916664L269.29688 62.135414Q269.29688 61.479164 269.17188 61.166664Q269.04688 60.854164 268.73438 60.666664Q268.42188 60.46354 268.0 60.46354Q267.32812 60.46354 266.82812 60.90104Q266.34375 61.322914 266.34375 62.510414L266.34375 65.916664L265.29688 65.916664ZM271.875 64.05729L272.90625 63.90104Q273.0 64.52604 273.39062 64.854164Q273.79688 65.18229 274.53125 65.18229Q275.25 65.18229 275.59375 64.90104Q275.95312 64.604164 275.95312 64.197914Q275.95312 63.83854 275.64062 63.635414Q275.42188 63.49479 274.5625 63.27604Q273.40625 62.979164 272.95312 62.77604Q272.51562 62.55729 272.28125 62.18229Q272.04688 61.80729 272.04688 61.33854Q272.04688 60.93229 272.23438 60.572914Q272.42188 60.21354 272.75 59.979164Q273.0 59.80729 273.42188 59.68229Q273.84375 59.55729 274.34375 59.55729Q275.0625 59.55729 275.60938 59.77604Q276.17188 59.979164 276.4375 60.33854Q276.70312 60.697914 276.79688 61.291664L275.76562 61.43229Q275.70312 60.96354 275.35938 60.697914Q275.03125 60.416664 274.40625 60.416664Q273.6875 60.416664 273.375 60.666664Q273.0625 60.90104 273.0625 61.229164Q273.0625 61.43229 273.1875 61.58854Q273.32812 61.760414 273.59375 61.86979Q273.75 61.93229 274.53125 62.135414Q275.65625 62.447914 276.09375 62.635414Q276.53125 62.822914 276.78125 63.18229Q277.03125 63.541664 277.03125 64.08854Q277.03125 64.61979 276.71875 65.08854Q276.42188 65.541664 275.84375 65.80729Q275.26562 66.05729 274.53125 66.05729Q273.3125 66.05729 272.67188 65.55729Q272.04688 65.041664 271.875 64.05729Z" fill-rule="nonzero"/><path stroke="#ea4335" stroke-width="4.0" stroke-linecap="butt" d="M293.5 61.916668L305.5 61.916668" fill-rule="nonzero"/><path fill="#1a1a1a" d="M314.375 65.916664L314.375 57.322914L315.51562 57.322914L315.51562 64.90104L319.75 64.90104L319.75 65.916664L314.375 65.916664ZM325.35938 65.15104Q324.76562 65.65104 324.21875 65.854164Q323.6875 66.05729 323.0625 66.05729Q322.03125 66.05729 321.48438 65.55729Q320.9375 65.05729 320.9375 64.27604Q320.9375 63.822914 321.14062 63.447914Q321.34375 63.05729 321.6875 62.83854Q322.03125 62.604164 322.45312 62.49479Q322.75 62.40104 323.39062 62.322914Q324.65625 62.18229 325.26562 61.96354Q325.26562 61.74479 325.26562 61.697914Q325.26562 61.041664 324.96875 60.77604Q324.5625 60.43229 323.76562 60.43229Q323.03125 60.43229 322.67188 60.697914Q322.3125 60.947914 322.14062 61.604164L321.10938 61.46354Q321.25 60.80729 321.57812 60.40104Q321.90625 59.99479 322.51562 59.77604Q323.125 59.55729 323.92188 59.55729Q324.71875 59.55729 325.21875 59.74479Q325.71875 59.93229 325.95312 60.21354Q326.1875 60.49479 326.28125 60.93229Q326.32812 61.197914 326.32812 61.90104L326.32812 63.30729Q326.32812 64.77604 326.39062 65.166664Q326.46875 65.55729 326.67188 65.916664L325.5625 65.916664Q325.40625 65.58854 325.35938 65.15104ZM325.26562 62.791664Q324.6875 63.02604 323.54688 63.197914Q322.89062 63.291664 322.625 63.416664Q322.35938 63.52604 322.20312 63.74479Q322.0625 63.96354 322.0625 64.24479Q322.0625 64.666664 322.375 64.947914Q322.70312 65.229164 323.3125 65.229164Q323.92188 65.229164 324.39062 64.96354Q324.875 64.697914 325.09375 64.229164Q325.26562 63.86979 325.26562 63.18229L325.26562 62.791664ZM329.26562 65.916664L328.28125 65.916664L328.28125 57.322914L329.34375 57.322914L329.34375 60.385414Q330.01562 59.55729 331.04688 59.55729Q331.625 59.55729 332.125 59.791664Q332.64062 60.010414 332.96875 60.43229Q333.3125 60.854164 333.5 61.447914Q333.6875 62.041664 333.6875 62.71354Q333.6875 64.30729 332.89062 65.18229Q332.09375 66.05729 331.0 66.05729Q329.89062 66.05729 329.26562 65.135414L329.26562 65.916664ZM329.25 62.760414Q329.25 63.86979 329.5625 64.36979Q330.0625 65.18229 330.90625 65.18229Q331.59375 65.18229 332.09375 64.58854Q332.60938 63.99479 332.60938 62.791664Q332.60938 61.572914 332.125 60.99479Q331.64062 60.416664 330.95312 60.416664Q330.26562 60.416664 329.75 61.02604Q329.25 61.61979 329.25 62.760414ZM334.875 64.05729L335.90625 63.90104Q336.0 64.52604 336.39062 64.854164Q336.79688 65.18229 337.53125 65.18229Q338.25 65.18229 338.59375 64.90104Q338.95312 64.604164 338.95312 64.197914Q338.95312 63.83854 338.64062 63.635414Q338.42188 63.49479 337.5625 63.27604Q336.40625 62.979164 335.95312 62.77604Q335.51562 62.55729 335.28125 62.18229Q335.04688 61.80729 335.04688 61.33854Q335.04688 60.93229 335.23438 60.572914Q335.42188 60.21354 335.75 59.979164Q336.0 59.80729 336.42188 59.68229Q336.84375 59.55729 337.34375 59.55729Q338.0625 59.55729 338.60938 59.77604Q339.17188 59.979164 339.4375 60.33854Q339.70312 60.697914 339.79688 61.291664L338.76562 61.43229Q338.70312 60.96354 338.35938 60.697914Q338.03125 60.416664 337.40625 60.416664Q336.6875 60.416664 336.375 60.666664Q336.0625 60.90104 336.0625 61.229164Q336.0625 61.43229 336.1875 61.58854Q336.32812 61.760414 336.59375 61.86979Q336.75 61.93229 337.53125 62.135414Q338.65625 62.447914 339.09375 62.635414Q339.53125 62.822914 339.78125 63.18229Q340.03125 63.541664 340.03125 64.08854Q340.03125 64.61979 339.71875 65.08854Q339.42188 65.541664 338.84375 65.80729Q338.26562 66.05729 337.53125 66.05729Q336.3125 66.05729 335.67188 65.55729Q335.04688 65.041664 334.875 64.05729Z" fill-rule="nonzero"/><path stroke="#fbbc04" stroke-width="4.0" stroke-linecap="butt" stroke-dasharray="13.0,9.0" d="M356.5 61.916668L391.5 61.916668" fill-rule="nonzero"/><path fill="#1a1a1a" d="M400.45312 65.916664L400.45312 57.322914L406.65625 57.322914L406.65625 58.33854L401.59375 58.33854L401.59375 60.96354L406.34375 60.96354L406.34375 61.979164L401.59375 61.979164L401.59375 64.90104L406.85938 64.90104L406.85938 65.916664L400.45312 65.916664ZM408.29688 65.916664L408.29688 59.697914L409.23438 59.697914L409.23438 60.572914Q409.92188 59.55729 411.21875 59.55729Q411.78125 59.55729 412.25 59.760414Q412.73438 59.96354 412.96875 60.291664Q413.20312 60.61979 413.29688 61.05729Q413.34375 61.354164 413.34375 62.08854L413.34375 65.916664L412.29688 65.916664L412.29688 62.135414Q412.29688 61.479164 412.17188 61.166664Q412.04688 60.854164 411.73438 60.666664Q411.42188 60.46354 411.0 60.46354Q410.32812 60.46354 409.82812 60.90104Q409.34375 61.322914 409.34375 62.510414L409.34375 65.916664L408.29688 65.916664ZM415.28125 65.916664L415.28125 59.697914L416.23438 59.697914L416.23438 60.635414Q416.59375 59.979164 416.89062 59.77604Q417.20312 59.55729 417.57812 59.55729Q418.10938 59.55729 418.65625 59.885414L418.29688 60.86979Q417.90625 60.635414 417.53125 60.635414Q417.17188 60.635414 416.89062 60.854164Q416.625 61.05729 416.51562 61.43229Q416.32812 61.99479 416.32812 62.65104L416.32812 65.916664L415.28125 65.916664ZM418.90625 62.80729Q418.90625 61.072914 419.85938 60.24479Q420.65625 59.55729 421.8125 59.55729Q423.09375 59.55729 423.90625 60.40104Q424.73438 61.229164 424.73438 62.71354Q424.73438 63.916664 424.375 64.604164Q424.01562 65.291664 423.3125 65.68229Q422.625 66.05729 421.8125 66.05729Q420.51562 66.05729 419.70312 65.229164Q418.90625 64.385414 418.90625 62.80729ZM419.98438 62.80729Q419.98438 63.99479 420.5 64.58854Q421.03125 65.18229 421.8125 65.18229Q422.60938 65.18229 423.125 64.58854Q423.64062 63.99479 423.64062 62.77604Q423.64062 61.61979 423.10938 61.02604Q422.59375 60.43229 421.8125 60.43229Q421.03125 60.43229 420.5 61.02604Q419.98438 61.604164 419.98438 62.80729ZM426.26562 65.916664L426.26562 57.322914L427.32812 57.322914L427.32812 65.916664L426.26562 65.916664ZM429.29688 65.916664L429.29688 59.697914L430.23438 59.697914L430.23438 60.572914Q430.53125 60.104164 431.01562 59.83854Q431.5 59.55729 432.125 59.55729Q432.8125 59.55729 433.25 59.83854Q433.70312 60.11979 433.875 60.635414Q434.625 59.55729 435.79688 59.55729Q436.73438 59.55729 437.21875 60.072914Q437.71875 60.572914 437.71875 61.65104L437.71875 65.916664L436.67188 65.916664L436.67188 61.99479Q436.67188 61.36979 436.5625 61.08854Q436.46875 60.80729 436.20312 60.635414Q435.9375 60.46354 435.5625 60.46354Q434.90625 60.46354 434.46875 60.90104Q434.04688 61.33854 434.04688 62.30729L434.04688 65.916664L432.98438 65.916664L432.98438 61.86979Q432.98438 61.166664 432.71875 60.822914Q432.46875 60.46354 431.89062 60.46354Q431.4375 60.46354 431.0625 60.697914Q430.6875 60.93229 430.51562 61.385414Q430.34375 61.83854 430.34375 62.68229L430.34375 65.916664L429.29688 65.916664ZM443.54688 63.916664L444.64062 64.041664Q444.39062 64.99479 443.6875 65.52604Q442.98438 66.05729 441.90625 66.05729Q440.54688 66.05729 439.73438 65.21354Q438.9375 64.36979 438.9375 62.854164Q438.9375 61.291664 439.75 60.43229Q440.5625 59.55729 441.84375 59.55729Q443.09375 59.55729 443.875 60.40104Q444.67188 61.24479 444.67188 62.791664Q444.67188 62.885414 444.67188 63.072914L440.03125 63.072914Q440.09375 64.104164 440.60938 64.65104Q441.125 65.18229 441.90625 65.18229Q442.48438 65.18229 442.89062 64.885414Q443.3125 64.572914 443.54688 63.916664ZM440.09375 62.21354L443.5625 62.21354Q443.5 61.416664 443.17188 61.02604Q442.65625 60.416664 441.85938 60.416664Q441.125 60.416664 440.625 60.90104Q440.14062 61.385414 440.09375 62.21354ZM446.29688 65.916664L446.29688 59.697914L447.23438 59.697914L447.23438 60.572914Q447.92188 59.55729 449.21875 59.55729Q449.78125 59.55729 450.25 59.760414Q450.73438 59.96354 450.96875 60.291664Q451.20312 60.61979 451.29688 61.05729Q451.34375 61.354164 451.34375 62.08854L451.34375 65.916664L450.29688 65.916664L450.29688 62.135414Q450.29688 61.479164 450.17188 61.166664Q450.04688 60.854164 449.73438 60.666664Q449.42188 60.46354 449.0 60.46354Q448.32812 60.46354 447.82812 60.90104Q447.34375 61.322914 447.34375 62.510414L447.34375 65.916664L446.29688 65.916664ZM455.59375 64.979164L455.75 65.90104Q455.29688 65.99479 454.95312 65.99479Q454.375 65.99479 454.0625 65.822914Q453.75 65.635414 453.60938 65.33854Q453.48438 65.041664 453.48438 64.08854L453.48438 60.510414L452.71875 60.510414L452.71875 59.697914L453.48438 59.697914L453.48438 58.15104L454.53125 57.52604L454.53125 59.697914L455.59375 59.697914L455.59375 60.510414L454.53125 60.510414L454.53125 64.15104Q454.53125 64.604164 454.57812 64.729164Q454.64062 64.854164 454.76562 64.93229Q454.89062 65.010414 455.125 65.010414Q455.3125 65.010414 455.59375 64.979164Z" fill-rule="nonzero"/><path fill="#757575" d="M30.315624 32.534374L32.20625 33.003124Q31.6125 35.346874 30.065624 36.58125Q28.51875 37.8 26.26875 37.8Q23.95625 37.8 22.503124 36.8625Q21.065624 35.909374 20.3 34.128124Q19.55 32.33125 19.55 30.284374Q19.55 28.05 20.39375 26.39375Q21.253124 24.721874 22.83125 23.8625Q24.409374 22.9875 26.3 22.9875Q28.45625 22.9875 29.909374 24.08125Q31.378124 25.175 31.95625 27.159374L30.096874 27.596874Q29.596874 26.034374 28.64375 25.33125Q27.70625 24.6125 26.26875 24.6125Q24.6125 24.6125 23.503124 25.409374Q22.39375 26.190624 21.940624 27.534374Q21.503124 28.8625 21.503124 30.26875Q21.503124 32.096874 22.034374 33.471874Q22.565624 34.83125 23.690624 35.503124Q24.815624 36.175 26.1125 36.175Q27.70625 36.175 28.815624 35.253124Q29.925 34.33125 30.315624 32.534374ZM33.51875 30.58125Q33.51875 27.01875 35.425 25.003124Q37.346874 22.971874 40.378124 22.971874Q42.3625 22.971874 43.940624 23.925Q45.534374 24.878124 46.3625 26.58125Q47.20625 28.26875 47.20625 30.409374Q47.20625 32.58125 46.33125 34.3Q45.45625 36.01875 43.83125 36.909374Q42.221874 37.8 40.3625 37.8Q38.346874 37.8 36.753124 36.83125Q35.159374 35.846874 34.33125 34.159374Q33.51875 32.45625 33.51875 30.58125ZM35.471874 30.6125Q35.471874 33.190624 36.8625 34.690624Q38.253124 36.175 40.346874 36.175Q42.4875 36.175 43.8625 34.675Q45.253124 33.159374 45.253124 30.39375Q45.253124 28.659374 44.659374 27.3625Q44.08125 26.05 42.940624 25.33125Q41.8 24.6125 40.378124 24.6125Q38.378124 24.6125 36.925 26.003124Q35.471874 27.378124 35.471874 30.6125ZM50.034374 37.55L50.034374 23.2375L52.89375 23.2375L56.26875 33.3625Q56.7375 34.784374 56.95625 35.4875Q57.20625 34.70625 57.721874 33.190624L61.14375 23.2375L63.690624 23.2375L63.690624 37.55L61.878124 37.55L61.878124 25.565624L57.70625 37.55L56.003124 37.55L51.8625 25.3625L51.8625 37.55L50.034374 37.55ZM67.09688 37.55L67.09688 23.2375L72.4875 23.2375Q73.925 23.2375 74.675 23.3625Q75.72188 23.55 76.44063 24.05Q77.15938 24.534374 77.58125 25.425Q78.01875 26.315624 78.01875 27.378124Q78.01875 29.20625 76.84688 30.471874Q75.69063 31.721874 72.65938 31.721874L68.9875 31.721874L68.9875 37.55L67.09688 37.55ZM68.9875 30.034374L72.69063 30.034374Q74.51875 30.034374 75.28438 29.3625Q76.06563 28.675 76.06563 27.425Q76.06563 26.534374 75.6125 25.89375Q75.15938 25.253124 74.425 25.05Q73.94063 24.925 72.64375 24.925L68.9875 24.925L68.9875 30.034374ZM88.6125 35.8625L88.6125 37.55L79.15938 37.55Q79.14375 36.909374 79.3625 36.33125Q79.72188 35.3625 80.51875 34.425Q81.31563 33.4875 82.81563 32.253124Q85.15938 30.346874 85.97188 29.2375Q86.8 28.1125 86.8 27.1125Q86.8 26.065624 86.05 25.346874Q85.3 24.628124 84.09688 24.628124Q82.83125 24.628124 82.06563 25.39375Q81.3 26.159374 81.3 27.503124L79.4875 27.315624Q79.675 25.3 80.87813 24.2375Q82.09688 23.175 84.14375 23.175Q86.19063 23.175 87.39375 24.315624Q88.59688 25.45625 88.59688 27.14375Q88.59688 28.003124 88.2375 28.846874Q87.89375 29.675 87.08125 30.596874Q86.26875 31.503124 84.37813 33.1125Q82.78438 34.440624 82.33125 34.909374Q81.89375 35.378124 81.59688 35.8625L88.6125 35.8625ZM90.50313 25.1125L90.50313 23.425L99.76875 23.425L99.76875 24.784374Q98.39375 26.2375 97.05 28.659374Q95.70625 31.065624 94.9875 33.6125Q94.45625 35.409374 94.3 37.55L92.50313 37.55Q92.53438 35.8625 93.15938 33.471874Q93.8 31.08125 94.9875 28.8625Q96.175 26.628124 97.50313 25.1125L90.50313 25.1125ZM108.00313 37.55L106.2375 37.55L106.2375 26.346874Q105.6125 26.95625 104.58125 27.565624Q103.55 28.159374 102.72188 28.471874L102.72188 26.76875Q104.20625 26.08125 105.3 25.096874Q106.40938 24.096874 106.8625 23.175L108.00313 23.175L108.00313 37.55ZM112.37813 30.4875Q112.37813 27.95625 112.89375 26.409374Q113.425 24.846874 114.45625 24.01875Q115.4875 23.175 117.05 23.175Q118.20625 23.175 119.06563 23.64375Q119.94063 24.096874 120.50313 24.971874Q121.06563 25.846874 121.39375 27.1125Q121.72188 28.3625 121.72188 30.4875Q121.72188 33.003124 121.19063 34.55Q120.675 36.096874 119.64375 36.95625Q118.62813 37.8 117.05 37.8Q114.97188 37.8 113.8 36.315624Q112.37813 34.51875 112.37813 30.4875ZM114.19063 30.4875Q114.19063 34.01875 115.00313 35.190624Q115.83125 36.346874 117.05 36.346874Q118.25313 36.346874 119.08125 35.175Q119.90938 34.003124 119.90938 30.4875Q119.90938 26.95625 119.08125 25.8Q118.25313 24.628124 117.03438 24.628124Q115.81563 24.628124 115.09688 25.659374Q114.19063 26.95625 114.19063 30.4875ZM128.51875 37.55L134.01875 23.2375L136.06563 23.2375L141.925 37.55L139.76875 37.55L138.09688 33.20625L132.1125 33.20625L130.53438 37.55L128.51875 37.55ZM132.65938 31.675L137.50313 31.675L136.01875 27.70625Q135.33125 25.89375 135.00313 24.7375Q134.72188 26.1125 134.22188 27.471874L132.65938 31.675ZM146.70625 35.971874L146.95625 37.534374Q146.22188 37.690624 145.62813 37.690624Q144.675 37.690624 144.14375 37.39375Q143.62813 37.08125 143.40938 36.596874Q143.19063 36.096874 143.19063 34.51875L143.19063 28.55L141.90938 28.55L141.90938 27.175L143.19063 27.175L143.19063 24.6125L144.94063 23.55L144.94063 27.175L146.70625 27.175L146.70625 28.55L144.94063 28.55L144.94063 34.6125Q144.94063 35.3625 145.03438 35.58125Q145.12813 35.784374 145.33125 35.925Q145.55 36.05 145.94063 36.05Q146.22188 36.05 146.70625 35.971874ZM152.70625 35.971874L152.95625 37.534374Q152.22188 37.690624 151.62813 37.690624Q150.675 37.690624 150.14375 37.39375Q149.62813 37.08125 149.40938 36.596874Q149.19063 36.096874 149.19063 34.51875L149.19063 28.55L147.90938 28.55L147.90938 27.175L149.19063 27.175L149.19063 24.6125L150.94063 23.55L150.94063 27.175L152.70625 27.175L152.70625 28.55L150.94063 28.55L150.94063 34.6125Q150.94063 35.3625 151.03438 35.58125Q151.12813 35.784374 151.33125 35.925Q151.55 36.05 151.94063 36.05Q152.22188 36.05 152.70625 35.971874ZM161.97188 34.20625L163.78438 34.440624Q163.3625 36.01875 162.19063 36.909374Q161.03438 37.784374 159.22188 37.784374Q156.95625 37.784374 155.6125 36.39375Q154.28438 34.9875 154.28438 32.45625Q154.28438 29.83125 155.62813 28.39375Q156.97188 26.940624 159.12813 26.940624Q161.20625 26.940624 162.51875 28.3625Q163.84688 29.76875 163.84688 32.346874Q163.84688 32.503124 163.83125 32.815624L156.09688 32.815624Q156.19063 34.51875 157.06563 35.425Q157.94063 36.33125 159.2375 36.33125Q160.20625 36.33125 160.87813 35.83125Q161.56563 35.315624 161.97188 34.20625ZM156.19063 31.3625L161.9875 31.3625Q161.87813 30.065624 161.33125 29.409374Q160.4875 28.39375 159.14375 28.39375Q157.94063 28.39375 157.1125 29.20625Q156.28438 30.003124 156.19063 31.3625ZM165.8625 37.55L165.8625 27.175L167.45625 27.175L167.45625 28.659374Q168.59688 26.940624 170.75313 26.940624Q171.69063 26.940624 172.47188 27.284374Q173.26875 27.6125 173.65938 28.159374Q174.05 28.70625 174.20625 29.45625Q174.3 29.95625 174.3 31.175L174.3 37.55L172.53438 37.55L172.53438 31.2375Q172.53438 30.159374 172.33125 29.628124Q172.12813 29.096874 171.59688 28.784374Q171.08125 28.471874 170.37813 28.471874Q169.25313 28.471874 168.44063 29.190624Q167.62813 29.89375 167.62813 31.878124L167.62813 37.55L165.8625 37.55ZM183.59688 37.55L183.59688 36.2375Q182.6125 37.784374 180.69063 37.784374Q179.45625 37.784374 178.40938 37.096874Q177.37813 36.409374 176.8 35.190624Q176.2375 33.971874 176.2375 32.378124Q176.2375 30.815624 176.75313 29.55Q177.26875 28.284374 178.3 27.6125Q179.34688 26.940624 180.6125 26.940624Q181.55 26.940624 182.28438 27.346874Q183.01875 27.7375 183.4875 28.3625L183.4875 23.2375L185.22188 23.2375L185.22188 37.55L183.59688 37.55ZM178.03438 32.378124Q178.03438 34.3625 178.87813 35.346874Q179.72188 36.33125 180.8625 36.33125Q182.01875 36.33125 182.81563 35.39375Q183.62813 34.45625 183.62813 32.51875Q183.62813 30.39375 182.8 29.39375Q181.9875 28.39375 180.78438 28.39375Q179.6125 28.39375 178.81563 29.3625Q178.03438 30.315624 178.03438 32.378124ZM194.64375 36.26875Q193.65938 37.096874 192.75313 37.440624Q191.84688 37.784374 190.81563 37.784374Q189.1125 37.784374 188.19063 36.95625Q187.26875 36.1125 187.26875 34.815624Q187.26875 34.05 187.6125 33.425Q187.97188 32.8 188.53438 32.425Q189.09688 32.034374 189.8 31.83125Q190.31563 31.70625 191.3625 31.565624Q193.4875 31.315624 194.4875 30.971874Q194.50313 30.6125 194.50313 30.503124Q194.50313 29.440624 194.00313 28.9875Q193.33125 28.39375 192.00313 28.39375Q190.75313 28.39375 190.15938 28.83125Q189.58125 29.26875 189.3 30.378124L187.58125 30.14375Q187.81563 29.034374 188.34688 28.3625Q188.87813 27.675 189.89375 27.315624Q190.90938 26.940624 192.25313 26.940624Q193.58125 26.940624 194.40938 27.253124Q195.2375 27.565624 195.62813 28.05Q196.01875 28.51875 196.175 29.2375Q196.26875 29.690624 196.26875 30.8625L196.26875 33.20625Q196.26875 35.659374 196.37813 36.315624Q196.4875 36.95625 196.83125 37.55L194.9875 37.55Q194.72188 37.003124 194.64375 36.26875ZM194.4875 32.346874Q193.53438 32.7375 191.6125 33.003124Q190.53438 33.159374 190.08125 33.3625Q189.64375 33.55 189.39375 33.925Q189.14375 34.3 189.14375 34.76875Q189.14375 35.471874 189.675 35.940624Q190.20625 36.409374 191.2375 36.409374Q192.25313 36.409374 193.03438 35.971874Q193.83125 35.51875 194.20625 34.753124Q194.4875 34.14375 194.4875 32.9875L194.4875 32.346874ZM198.8625 37.55L198.8625 27.175L200.45625 27.175L200.45625 28.659374Q201.59688 26.940624 203.75313 26.940624Q204.69063 26.940624 205.47188 27.284374Q206.26875 27.6125 206.65938 28.159374Q207.05 28.70625 207.20625 29.45625Q207.3 29.95625 207.3 31.175L207.3 37.55L205.53438 37.55L205.53438 31.2375Q205.53438 30.159374 205.33125 29.628124Q205.12813 29.096874 204.59688 28.784374Q204.08125 28.471874 203.37813 28.471874Q202.25313 28.471874 201.44063 29.190624Q200.62813 29.89375 200.62813 31.878124L200.62813 37.55L198.8625 37.55ZM216.64375 33.753124L218.3625 33.971874Q218.08125 35.76875 216.90938 36.784374Q215.75313 37.784374 214.05 37.784374Q211.925 37.784374 210.62813 36.39375Q209.33125 35.003124 209.33125 32.409374Q209.33125 30.721874 209.87813 29.471874Q210.44063 28.20625 211.58125 27.58125Q212.72188 26.940624 214.06563 26.940624Q215.75313 26.940624 216.81563 27.8Q217.89375 28.659374 218.20625 30.221874L216.4875 30.4875Q216.25313 29.440624 215.62813 28.925Q215.00313 28.39375 214.12813 28.39375Q212.8 28.39375 211.97188 29.346874Q211.14375 30.3 211.14375 32.346874Q211.14375 34.440624 211.94063 35.39375Q212.7375 36.33125 214.03438 36.33125Q215.06563 36.33125 215.75313 35.70625Q216.45625 35.065624 216.64375 33.753124ZM226.97188 34.20625L228.78438 34.440624Q228.3625 36.01875 227.19063 36.909374Q226.03438 37.784374 224.22188 37.784374Q221.95625 37.784374 220.6125 36.39375Q219.28438 34.9875 219.28438 32.45625Q219.28438 29.83125 220.62813 28.39375Q221.97188 26.940624 224.12813 26.940624Q226.20625 26.940624 227.51875 28.3625Q228.84688 29.76875 228.84688 32.346874Q228.84688 32.503124 228.83125 32.815624L221.09688 32.815624Q221.19063 34.51875 222.06563 35.425Q222.94063 36.33125 224.2375 36.33125Q225.20625 36.33125 225.87813 35.83125Q226.56563 35.315624 226.97188 34.20625ZM221.19063 31.3625L226.9875 31.3625Q226.87813 30.065624 226.33125 29.409374Q225.4875 28.39375 224.14375 28.39375Q222.94063 28.39375 222.1125 29.20625Q221.28438 30.003124 221.19063 31.3625Z" fill-rule="nonzero"/></svg>